<svg id="visual" viewBox="0 0 960 540" width="960" height="540" xmlns="http://www.w3.org/2000/svg" xmlns:xlink="http://www.w3.org/1999/xlink" version="1.1"><rect x="0" y="0" width="960" height="540" fill="#009bff"></rect><path d="M0 462L10.7 467.2C21.3 472.3 42.7 482.7 64 479.8C85.3 477 106.7 461 128 445.8C149.3 430.7 170.7 416.3 192 415.8C213.3 415.3 234.7 428.7 256 436C277.3 443.3 298.7 444.7 320 455.3C341.3 466 362.7 486 384 478.5C405.3 471 426.7 436 448 419.3C469.3 402.7 490.7 404.3 512 412C533.3 419.7 554.7 433.3 576 442.2C597.3 451 618.7 455 640 455.5C661.3 456 682.7 453 704 461.7C725.3 470.3 746.7 490.7 768 495.5C789.3 500.3 810.7 489.7 832 481.8C853.3 474 874.7 469 896 473.5C917.3 478 938.7 492 949.3 499L960 506L960 541L949.3 541C938.7 541 917.3 541 896 541C874.7 541 853.3 541 832 541C810.7 541 789.3 541 768 541C746.7 541 725.3 541 704 541C682.7 541 661.3 541 640 541C618.7 541 597.3 541 576 541C554.7 541 533.3 541 512 541C490.7 541 469.3 541 448 541C426.7 541 405.3 541 384 541C362.7 541 341.3 541 320 541C298.7 541 277.3 541 256 541C234.7 541 213.3 541 192 541C170.7 541 149.3 541 128 541C106.7 541 85.3 541 64 541C42.7 541 21.3 541 10.7 541L0 541Z" fill="#0047ed" stroke-linecap="round" stroke-linejoin="miter"></path></svg>